
<svg xmlns="http://www.w3.org/2000/svg" version="1.1" xmlns:xlink="http://www.w3.org/1999/xlink" preserveAspectRatio="none" x="0px" y="0px" width="25px" height="86px" viewBox="0 0 25 86">
<defs>
<g id="Layer0_0_FILL">
<path fill="#000000" stroke="none" d="
M 23.45 12.8
Q 23.7169921875 10.931640625 23.85 9.15 23.897265625 8.646484375 23.9 8.15 23.9818359375 7.31484375 24 6.5
L 0 0
Q 0.043359375 0.98828125 0.25 2 0.359375 2.5220703125 0.5 3.05 1.2384765625 5.530859375 2.95 8.15 3.26640625 8.64765625 3.6 9.15 3.7826171875 9.374609375 3.95 9.6 7.65 14.7 8.65 21.5 9.55 28.25 10.4 42.05 10.421484375 42.4220703125 10.45 42.8 10.4759765625 43.31953125 10.5 43.85 11.03984375 57.1701171875 8.75 77.5 8.7640625 77.6248046875 8.75 77.75 8.7130859375 78.13515625 8.7 78.5 8.66484375 79.0478515625 8.65 79.55 8.6466796875 80.0748046875 8.65 80.55 8.7111328125 81.1091796875 8.8 81.6 8.891015625 82.1416015625 9.05 82.6 9.230078125 83.1625 9.5 83.6 10.9908203125 86.0603515625 15.2 84.6 15.91171875 84.2935546875 16.4 83.6 16.6904296875 83.1734375 16.9 82.6 17.0642578125 82.1462890625 17.15 81.6 17.2705078125 81.1119140625 17.3 80.55 17.38359375 80.0763671875 17.4 79.55 17.412890625 79.0490234375 17.4 78.5 17.38359375 78.0185546875 17.35 77.5 17.1255859375 74.1599609375 16 69.3 15.104296875 54.7943359375 16.25 43.85 16.33828125 43.3208984375 16.4 42.8 16.9033203125 38.4611328125 17.75 34.7 18.020703125 33.3740234375 18.35 32.1 18.62890625 31.086328125 18.95 30.1 19.153515625 29.509375 19.35 28.9 19.9025390625 27.27890625 20.4 25.65 20.9310546875 23.9634765625 21.4 22.3 21.52734375 21.8478515625 21.65 21.4 22.0615234375 19.8755859375 22.4 18.4 23.0646484375 15.5078125 23.45 12.8 Z"/>
</g>
</defs>

<g transform="matrix( 1, 0, 0, 1, 0,0) ">
<use xlink:href="#Layer0_0_FILL"/>
</g>
</svg>
